<svg width="680" height="586" xmlns="http://www.w3.org/2000/svg" xmlns:xlink="http://www.w3.org/1999/xlink" overflow="hidden"><defs><clipPath id="clip0"><rect x="0" y="0" width="680" height="586"/></clipPath></defs><g clip-path="url(#clip0)"><rect x="0" y="0" width="680" height="586.454" fill="#FFFFFF"/><path d="M42.5183 3.01922C43.9128 3.38694 44.9838 4.1809 45.7312 5.40108 46.4786 6.62126 46.8523 8.09336 46.8523 9.81738 46.8523 11.5462 46.4798 13.0183 45.7348 14.2337 44.9898 15.4491 43.9176 16.2406 42.5183 16.6084L42.3464 16.0568C43.4496 15.6891 44.2698 14.9632 44.8071 13.8791 45.3443 12.795 45.613 11.4172 45.613 9.74574 45.613 8.13157 45.3455 6.7908 44.8107 5.72344 44.2758 4.65608 43.4472 3.93853 42.3249 3.57081ZM8.32869 3.01922 8.5221 3.57081C7.40459 3.93853 6.57721 4.65608 6.03995 5.72344 5.50269 6.7908 5.23406 8.13157 5.23406 9.74574 5.23406 11.4172 5.50269 12.795 6.03995 13.8791 6.57721 14.9632 7.39743 15.6891 8.50061 16.0568L8.32869 16.6084C6.92942 16.2406 5.85728 15.4491 5.11228 14.2337 4.36727 13.0183 3.99477 11.5462 3.99477 9.81738 3.99477 8.09336 4.36847 6.62126 5.11586 5.40108 5.86325 4.1809 6.93419 3.38694 8.32869 3.01922Z" fill-rule="evenodd" transform="matrix(1 0 0 1.00077 26.2575 165.128)"/><text font-family="Cambria Math,Cambria Math_MSFontService,sans-serif" font-weight="400" font-size="14.6708" transform="matrix(1 0 0 1.00077 35.0465 179)">𝑓′</text><text font-family="Cambria Math,Cambria Math_MSFontService,sans-serif" font-weight="400" font-size="14.6708" transform="matrix(1 0 0 1.00077 50.1324 179)">∘</text><text font-family="Cambria Math,Cambria Math_MSFontService,sans-serif" font-weight="400" font-size="14.6708" transform="matrix(1 0 0 1.00077 59.8876 179)">𝑓</text><text font-family="Cambria Math,Cambria Math_MSFontService,sans-serif" font-weight="400" font-size="14.6708" transform="matrix(1 0 0 1.00077 77.6523 179)">∘</text><path d="M102.789 3.01922C104.183 3.38694 105.254 4.1809 106.002 5.40108 106.749 6.62126 107.123 8.09336 107.123 9.81738 107.123 11.5462 106.75 13.0183 106.005 14.2337 105.26 15.4491 104.188 16.2406 102.789 16.6084L102.617 16.0568C103.72 15.6891 104.54 14.9632 105.078 13.8791 105.615 12.795 105.883 11.4172 105.883 9.74574 105.883 8.13157 105.616 6.7908 105.081 5.72344 104.546 4.65608 103.718 3.93853 102.595 3.57081ZM66.7734 3.01922 66.9668 3.57081C65.8493 3.93853 65.0219 4.65608 64.4846 5.72344 63.9474 6.7908 63.6787 8.13157 63.6787 9.74574 63.6787 11.4172 63.9474 12.795 64.4846 13.8791 65.0219 14.9632 65.8421 15.6891 66.9453 16.0568L66.7734 16.6084C65.3741 16.2406 64.302 15.4491 63.557 14.2337 62.812 13.0183 62.4395 11.5462 62.4395 9.81738 62.4395 8.09336 62.8131 6.62126 63.5605 5.40108 64.3079 4.1809 65.3789 3.38694 66.7734 3.01922Z" fill-rule="evenodd" transform="matrix(1 0 0 1.00077 26.2575 165.128)"/><text font-family="Cambria Math,Cambria Math_MSFontService,sans-serif" font-weight="400" font-size="14.6708" transform="matrix(1 0 0 1.00077 93.4912 179)">𝑔</text><text font-family="Cambria Math,Cambria Math_MSFontService,sans-serif" font-weight="400" font-size="14.6708" transform="matrix(1 0 0 1.00077 105.998 179)">∘</text><text font-family="Cambria Math,Cambria Math_MSFontService,sans-serif" font-weight="400" font-size="14.6708" transform="matrix(1 0 0 1.00077 115.754 179)">𝑔′</text><text font-family="Cambria Math,Cambria Math_MSFontService,sans-serif" font-weight="400" font-size="14.6708" transform="matrix(1 0 0 1.00077 26.9946 222)">=</text><text font-family="Cambria Math,Cambria Math_MSFontService,sans-serif" font-weight="400" font-size="14.6708" transform="matrix(1 0 0 1.00077 42.0605 222)">𝑓′</text><text font-family="Cambria Math,Cambria Math_MSFontService,sans-serif" font-weight="400" font-size="14.6708" transform="matrix(1 0 0 1.00077 57.1465 222)">∘</text><path d="M79.8134 3.01922C81.2079 3.38694 82.2788 4.1809 83.0262 5.40108 83.7736 6.62126 84.1473 8.09336 84.1473 9.81738 84.1473 11.5462 83.7748 13.0183 83.0298 14.2337 82.2848 15.4491 81.2127 16.2406 79.8134 16.6084L79.6415 16.0568C80.7447 15.6891 81.5649 14.9632 82.1021 13.8791 82.6394 12.795 82.908 11.4172 82.908 9.74574 82.908 8.13157 82.6406 6.7908 82.1057 5.72344 81.5708 4.65608 80.7423 3.93853 79.62 3.57081ZM48.2025 3.01922 48.3959 3.57081C47.2784 3.93853 46.451 4.65608 45.9137 5.72344 45.3765 6.7908 45.1078 8.13157 45.1078 9.74574 45.1078 11.4172 45.3765 12.795 45.9137 13.8791 46.451 14.9632 47.2712 15.6891 48.3744 16.0568L48.2025 16.6084C46.8032 16.2406 45.7311 15.4491 44.9861 14.2337 44.2411 13.0183 43.8686 11.5462 43.8686 9.81738 43.8686 8.09336 44.2423 6.62126 44.9896 5.40108 45.737 4.1809 46.808 3.38694 48.2025 3.01922Z" fill-rule="evenodd" transform="matrix(1 0 0 1.00077 24.3226 208.206)"/><text font-family="Cambria Math,Cambria Math_MSFontService,sans-serif" font-weight="400" font-size="14.6708" transform="matrix(1 0 0 1.00077 72.9854 222)">𝑓</text><text font-family="Cambria Math,Cambria Math_MSFontService,sans-serif" font-weight="400" font-size="14.6708" transform="matrix(1 0 0 1.00077 84.6663 222)">∘</text><text font-family="Cambria Math,Cambria Math_MSFontService,sans-serif" font-weight="400" font-size="14.6708" transform="matrix(1 0 0 1.00077 94.4215 222)">𝑔</text><text font-family="Cambria Math,Cambria Math_MSFontService,sans-serif" font-weight="400" font-size="14.6708" transform="matrix(1 0 0 1.00077 113.012 222)">∘</text><text font-family="Cambria Math,Cambria Math_MSFontService,sans-serif" font-weight="400" font-size="14.6708" transform="matrix(1 0 0 1.00077 122.768 222)">𝑔′</text><text font-family="Cambria Math,Cambria Math_MSFontService,sans-serif" font-weight="400" font-size="14.6708" transform="matrix(1 0 0 1.00077 25.9092 265)">=</text><text font-family="Cambria Math,Cambria Math_MSFontService,sans-serif" font-weight="400" font-size="14.6708" transform="matrix(1 0 0 1.00077 40.9752 265)">𝑓′</text><text font-family="Cambria Math,Cambria Math_MSFontService,sans-serif" font-weight="400" font-size="14.6708" transform="matrix(1 0 0 1.00077 56.0611 265)">∘</text><text font-family="Cambria Math,Cambria Math_MSFontService,sans-serif" font-weight="400" font-size="14.6708" transform="matrix(1 0 0 1.00077 65.8163 265)">𝑖𝑑𝐵</text><text font-family="Cambria Math,Cambria Math_MSFontService,sans-serif" font-weight="400" font-size="14.6708" transform="matrix(1 0 0 1.00077 92.29 265)">∘</text><text font-family="Cambria Math,Cambria Math_MSFontService,sans-serif" font-weight="400" font-size="14.6708" transform="matrix(1 0 0 1.00077 102.045 265)">𝑔′</text><text font-family="Cambria Math,Cambria Math_MSFontService,sans-serif" font-weight="400" font-size="14.6708" transform="matrix(1 0 0 1.00077 28.7096 302)">=</text><text font-family="Cambria Math,Cambria Math_MSFontService,sans-serif" font-weight="400" font-size="14.6708" transform="matrix(1 0 0 1.00077 43.7755 302)">𝑓′</text><text font-family="Cambria Math,Cambria Math_MSFontService,sans-serif" font-weight="400" font-size="14.6708" transform="matrix(1 0 0 1.00077 58.8615 302)">∘</text><text font-family="Cambria Math,Cambria Math_MSFontService,sans-serif" font-weight="400" font-size="14.6708" transform="matrix(1 0 0 1.00077 68.6167 302)">𝑔′</text><text font-family="Cambria Math,Cambria Math_MSFontService,sans-serif" font-weight="400" font-size="14.6708" transform="matrix(1 0 0 1.00077 28.563 338)">=</text><text font-family="Cambria Math,Cambria Math_MSFontService,sans-serif" font-weight="400" font-size="14.6708" transform="matrix(1 0 0 1.00077 43.629 338)">𝑖𝑑𝐶</text><path d="M44.3441 3.01922C45.7386 3.38694 46.8096 4.1809 47.5569 5.40108 48.3043 6.62126 48.678 8.09336 48.678 9.81738 48.678 11.5462 48.3055 13.0183 47.5605 14.2337 46.8155 15.4491 45.7434 16.2406 44.3441 16.6084L44.1722 16.0568C45.2754 15.6891 46.0956 14.9632 46.6329 13.8791 47.1701 12.795 47.4387 11.4172 47.4387 9.74574 47.4387 8.13157 47.1713 6.7908 46.6364 5.72344 46.1016 4.65608 45.273 3.93853 44.1507 3.57081ZM8.32869 3.01922 8.5221 3.57081C7.40459 3.93853 6.57721 4.65608 6.03995 5.72344 5.50269 6.7908 5.23406 8.13157 5.23406 9.74574 5.23406 11.4172 5.50269 12.795 6.03995 13.8791 6.57721 14.9632 7.39743 15.6891 8.50061 16.0568L8.32869 16.6084C6.92942 16.2406 5.85728 15.4491 5.11228 14.2337 4.36727 13.0183 3.99477 11.5462 3.99477 9.81738 3.99477 8.09336 4.36847 6.62126 5.11586 5.40108 5.86325 4.1809 6.93419 3.38694 8.32869 3.01922Z" fill-rule="evenodd" transform="matrix(1 0 0 1.00077 23.6562 380.587)"/><text font-family="Cambria Math,Cambria Math_MSFontService,sans-serif" font-weight="400" font-size="14.6708" transform="matrix(1 0 0 1.00077 32.4453 395)">𝑔</text><text font-family="Cambria Math,Cambria Math_MSFontService,sans-serif" font-weight="400" font-size="14.6708" transform="matrix(1 0 0 1.00077 44.9524 395)">∘</text><text font-family="Cambria Math,Cambria Math_MSFontService,sans-serif" font-weight="400" font-size="14.6708" transform="matrix(1 0 0 1.00077 54.7077 395)">𝑔′</text><text font-family="Cambria Math,Cambria Math_MSFontService,sans-serif" font-weight="400" font-size="14.6708" transform="matrix(1 0 0 1.00077 76.8768 395)">∘</text><path d="M102.789 3.01922C104.183 3.38694 105.254 4.1809 106.002 5.40108 106.749 6.62126 107.123 8.09336 107.123 9.81738 107.123 11.5462 106.75 13.0183 106.005 14.2337 105.26 15.4491 104.188 16.2406 102.789 16.6084L102.617 16.0568C103.72 15.6891 104.54 14.9632 105.078 13.8791 105.615 12.795 105.883 11.4172 105.883 9.74574 105.883 8.13157 105.616 6.7908 105.081 5.72344 104.546 4.65608 103.718 3.93853 102.595 3.57081ZM68.5991 3.01922 68.7926 3.57081C67.675 3.93853 66.8477 4.65608 66.3104 5.72344 65.7731 6.7908 65.5045 8.13157 65.5045 9.74574 65.5045 11.4172 65.7731 12.795 66.3104 13.8791 66.8477 14.9632 67.6679 15.6891 68.7711 16.0568L68.5991 16.6084C67.1999 16.2406 66.1277 15.4491 65.3827 14.2337 64.6377 13.0183 64.2652 11.5462 64.2652 9.81738 64.2652 8.09336 64.6389 6.62126 65.3863 5.40108 66.1337 4.1809 67.2046 3.38694 68.5991 3.01922Z" fill-rule="evenodd" transform="matrix(1 0 0 1.00077 23.6562 380.587)"/><text font-family="Cambria Math,Cambria Math_MSFontService,sans-serif" font-weight="400" font-size="14.6708" transform="matrix(1 0 0 1.00077 92.7157 395)">𝑓′</text><text font-family="Cambria Math,Cambria Math_MSFontService,sans-serif" font-weight="400" font-size="14.6708" transform="matrix(1 0 0 1.00077 107.802 395)">∘</text><text font-family="Cambria Math,Cambria Math_MSFontService,sans-serif" font-weight="400" font-size="14.6708" transform="matrix(1 0 0 1.00077 117.557 395)">𝑓</text><text font-family="Cambria Math,Cambria Math_MSFontService,sans-serif" font-weight="400" font-size="14.6708" transform="matrix(1 0 0 1.00077 26.1392 438)">=</text><text font-family="Cambria Math,Cambria Math_MSFontService,sans-serif" font-weight="400" font-size="14.6708" transform="matrix(1 0 0 1.00077 41.2051 438)">𝑔</text><text font-family="Cambria Math,Cambria Math_MSFontService,sans-serif" font-weight="400" font-size="14.6708" transform="matrix(1 0 0 1.00077 53.7123 438)">∘</text><path d="M85.9637 3.01922C87.3582 3.38694 88.4292 4.1809 89.1765 5.40108 89.9239 6.62126 90.2976 8.09336 90.2976 9.81738 90.2976 11.5462 89.9251 13.0183 89.1801 14.2337 88.4351 15.4491 87.363 16.2406 85.9637 16.6084L85.7918 16.0568C86.895 15.6891 87.7152 14.9632 88.2524 13.8791 88.7897 12.795 89.0583 11.4172 89.0583 9.74574 89.0583 8.13157 88.7909 6.7908 88.256 5.72344 87.7212 4.65608 86.8926 3.93853 85.7703 3.57081ZM47.3695 3.01922 47.563 3.57081C46.4455 3.93853 45.6181 4.65608 45.0808 5.72344 44.5435 6.7908 44.2749 8.13157 44.2749 9.74574 44.2749 11.4172 44.5435 12.795 45.0808 13.8791 45.6181 14.9632 46.4383 15.6891 47.5415 16.0568L47.3695 16.6084C45.9703 16.2406 44.8981 15.4491 44.1531 14.2337 43.4081 13.0183 43.0356 11.5462 43.0356 9.81738 43.0356 8.09336 43.4093 6.62126 44.1567 5.40108 44.9041 4.1809 45.9751 3.38694 47.3695 3.01922Z" fill-rule="evenodd" transform="matrix(1 0 0 1.00077 21.7213 423.665)"/><text font-family="Cambria Math,Cambria Math_MSFontService,sans-serif" font-weight="400" font-size="14.6708" transform="matrix(1 0 0 1.00077 69.5512 438)">𝑔′</text><text font-family="Cambria Math,Cambria Math_MSFontService,sans-serif" font-weight="400" font-size="14.6708" transform="matrix(1 0 0 1.00077 85.6367 438)">∘</text><text font-family="Cambria Math,Cambria Math_MSFontService,sans-serif" font-weight="400" font-size="14.6708" transform="matrix(1 0 0 1.00077 95.3919 438)">𝑓′</text><text font-family="Cambria Math,Cambria Math_MSFontService,sans-serif" font-weight="400" font-size="14.6708" transform="matrix(1 0 0 1.00077 116.561 438)">∘</text><text font-family="Cambria Math,Cambria Math_MSFontService,sans-serif" font-weight="400" font-size="14.6708" transform="matrix(1 0 0 1.00077 126.317 438)">𝑓</text><text font-family="Cambria Math,Cambria Math_MSFontService,sans-serif" font-weight="400" font-size="14.6708" transform="matrix(1 0 0 1.00077 22.8815 481)">=</text><text font-family="Cambria Math,Cambria Math_MSFontService,sans-serif" font-weight="400" font-size="14.6708" transform="matrix(1 0 0 1.00077 37.9475 481)">𝑔</text><text font-family="Cambria Math,Cambria Math_MSFontService,sans-serif" font-weight="400" font-size="14.6708" transform="matrix(1 0 0 1.00077 50.4547 481)">∘</text><text font-family="Cambria Math,Cambria Math_MSFontService,sans-serif" font-weight="400" font-size="14.6708" transform="matrix(1 0 0 1.00077 60.2099 481)">𝑖𝑑𝐵</text><text font-family="Cambria Math,Cambria Math_MSFontService,sans-serif" font-weight="400" font-size="14.6708" transform="matrix(1 0 0 1.00077 86.6836 481)">∘</text><text font-family="Cambria Math,Cambria Math_MSFontService,sans-serif" font-weight="400" font-size="14.6708" transform="matrix(1 0 0 1.00077 96.4388 481)">𝑓</text><text font-family="Cambria Math,Cambria Math_MSFontService,sans-serif" font-weight="400" font-size="14.6708" transform="matrix(1 0 0 1.00077 26.0151 517)">=</text><text font-family="Cambria Math,Cambria Math_MSFontService,sans-serif" font-weight="400" font-size="14.6708" transform="matrix(1 0 0 1.00077 41.081 517)">𝑔</text><text font-family="Cambria Math,Cambria Math_MSFontService,sans-serif" font-weight="400" font-size="14.6708" transform="matrix(1 0 0 1.00077 53.5882 517)">∘</text><text font-family="Cambria Math,Cambria Math_MSFontService,sans-serif" font-weight="400" font-size="14.6708" transform="matrix(1 0 0 1.00077 63.3434 517)">𝑓</text><text font-family="Cambria Math,Cambria Math_MSFontService,sans-serif" font-weight="400" font-size="14.6708" transform="matrix(1 0 0 1.00077 25.9618 553)">=</text><text font-family="Cambria Math,Cambria Math_MSFontService,sans-serif" font-weight="400" font-size="14.6708" transform="matrix(1 0 0 1.00077 41.0277 553)">𝑖𝑑𝐴</text><text font-family="Cambria Math,Cambria Math_MSFontService,sans-serif" font-weight="400" font-size="14.6708" transform="matrix(1 0 0 1.00077 400.475 95)">𝐴</text><text font-family="Cambria Math,Cambria Math_MSFontService,sans-serif" font-weight="400" font-size="14.6708" transform="matrix(1 0 0 1.00077 507.85 94)">𝐵</text><text font-family="Cambria Math,Cambria Math_MSFontService,sans-serif" font-weight="400" font-size="14.6708" transform="matrix(1 0 0 1.00077 616.187 95)">𝐶</text><path d="M421.5 83.8986 501.181 83.8986 501.181 85.2323 421.5 85.2323ZM493.52 79.3215 502.503 84.5655 493.52 89.8095C493.202 89.995 492.794 89.8876 492.609 89.5695 492.424 89.2513 492.531 88.843 492.849 88.6574L500.845 83.9894 500.845 85.1415 492.849 80.4735C492.531 80.2879 492.424 79.8796 492.609 79.5615 492.794 79.2433 493.202 79.1359 493.52 79.3215Z" fill="#172C51"/><path d="M530.5 83.8986 610.181 83.8986 610.181 85.2323 530.5 85.2323ZM602.52 79.3215 611.503 84.5655 602.52 89.8095C602.202 89.995 601.794 89.8876 601.609 89.5695 601.424 89.2513 601.531 88.843 601.849 88.6574L609.845 83.9894 609.845 85.1415 601.849 80.4735C601.531 80.2879 601.424 79.8796 601.609 79.5615 601.794 79.2433 602.202 79.1359 602.52 79.3215Z" fill="#172C51"/><path d="M420.819 91.9048 500.5 91.9048 500.5 93.2385 420.819 93.2385ZM428.48 97.8156 419.497 92.5716 428.48 87.3276C428.798 87.1421 429.206 87.2495 429.391 87.5676 429.576 87.8858 429.469 88.2941 429.151 88.4797L421.155 93.1477 421.155 91.9956 429.151 96.6636C429.469 96.8492 429.576 97.2575 429.391 97.5756 429.206 97.8938 428.798 98.0012 428.48 97.8156Z" fill="#172C51"/><path d="M529.819 91.9048 609.5 91.9048 609.5 93.2385 529.819 93.2385ZM537.48 97.8156 528.497 92.5716 537.48 87.3276C537.798 87.1421 538.206 87.2495 538.391 87.5676 538.576 87.8858 538.469 88.2941 538.151 88.4797L530.155 93.1477 530.155 91.9956 538.151 96.6636C538.469 96.8492 538.576 97.2575 538.391 97.5756 538.206 97.8938 537.798 98.0012 537.48 97.8156Z" fill="#172C51"/><text font-family="Cambria Math,Cambria Math_MSFontService,sans-serif" font-weight="400" font-size="14.6708" transform="matrix(1 0 0 1.00077 454.462 79)">𝑓</text><text font-family="Cambria Math,Cambria Math_MSFontService,sans-serif" font-weight="400" font-size="14.6708" transform="matrix(1 0 0 1.00077 564.759 79)">𝑓′</text><text font-family="Cambria Math,Cambria Math_MSFontService,sans-serif" font-weight="400" font-size="14.6708" transform="matrix(1 0 0 1.00077 561.427 109)">𝑔′</text><text font-family="Cambria Math,Cambria Math_MSFontService,sans-serif" font-weight="400" font-size="14.6708" transform="matrix(1 0 0 1.00077 451.441 106)">𝑔</text><text font-family="Cambria Math,Cambria Math_MSFontService,sans-serif" font-weight="400" font-size="14.6708" transform="matrix(1 0 0 1.00077 396.979 180)">𝐶</text><path d="M43.9976 3.01922C45.3921 3.38694 46.4631 4.1809 47.2104 5.40108 47.9578 6.62126 48.3315 8.09336 48.3315 9.81738 48.3315 11.5462 47.959 13.0183 47.214 14.2337 46.469 15.4491 45.3969 16.2406 43.9976 16.6084L43.8257 16.0568C44.9289 15.6891 45.7491 14.9632 46.2864 13.8791 46.8236 12.795 47.0923 11.4172 47.0923 9.74574 47.0923 8.13157 46.8248 6.7908 46.2899 5.72344 45.7551 4.65608 44.9265 3.93853 43.8042 3.57081ZM7.98219 3.01922 8.1756 3.57081C7.0581 3.93853 6.23071 4.65608 5.69345 5.72344 5.15619 6.7908 4.88756 8.13157 4.88756 9.74574 4.88756 11.4172 5.15619 12.795 5.69345 13.8791 6.23071 14.9632 7.05093 15.6891 8.15411 16.0568L7.98219 16.6084C6.58292 16.2406 5.51078 15.4491 4.76578 14.2337 4.02078 13.0183 3.64827 11.5462 3.64827 9.81738 3.64827 8.09336 4.02197 6.62126 4.76936 5.40108 5.51675 4.1809 6.58769 3.38694 7.98219 3.01922Z" fill-rule="evenodd" transform="matrix(1 0 0 1.00077 423.545 151.136)"/><text font-family="Cambria Math,Cambria Math_MSFontService,sans-serif" font-weight="400" font-size="14.6708" transform="matrix(1 0 0 1.00077 431.987 165)">𝑔</text><text font-family="Cambria Math,Cambria Math_MSFontService,sans-serif" font-weight="400" font-size="14.6708" transform="matrix(1 0 0 1.00077 444.494 165)">∘</text><text font-family="Cambria Math,Cambria Math_MSFontService,sans-serif" font-weight="400" font-size="14.6708" transform="matrix(1 0 0 1.00077 454.25 165)">𝑔′</text><path d="M412.5 173.968 492.181 173.968 492.181 175.302 412.5 175.302ZM484.52 169.391 493.503 174.635 484.52 179.879C484.202 180.065 483.794 179.957 483.609 179.639 483.424 179.321 483.531 178.913 483.849 178.727L491.845 174.059 491.845 175.211 483.849 170.543C483.531 170.358 483.424 169.949 483.609 169.631 483.794 169.313 484.202 169.206 484.52 169.391Z" fill="#172C51"/><text font-family="Cambria Math,Cambria Math_MSFontService,sans-serif" font-weight="400" font-size="14.6708" transform="matrix(1 0 0 1.00077 495.026 180)">𝐴</text><path d="M510.5 173.968 590.181 173.968 590.181 175.302 510.5 175.302ZM582.52 169.391 591.503 174.635 582.52 179.879C582.202 180.065 581.794 179.957 581.609 179.639 581.424 179.321 581.531 178.913 581.849 178.727L589.845 174.059 589.845 175.211 581.849 170.543C581.531 170.358 581.424 169.949 581.609 169.631 581.794 169.313 582.202 169.206 582.52 169.391Z" fill="#172C51"/><path d="M42.1652 3.01922C43.5597 3.38694 44.6306 4.1809 45.378 5.40108 46.1254 6.62126 46.4991 8.09336 46.4991 9.81738 46.4991 11.5462 46.1266 13.0183 45.3816 14.2337 44.6366 15.4491 43.5645 16.2406 42.1652 16.6084L41.9933 16.0568C43.0964 15.6891 43.9167 14.9632 44.4539 13.8791 44.9912 12.795 45.2598 11.4172 45.2598 9.74574 45.2598 8.13157 44.9924 6.7908 44.4575 5.72344 43.9226 4.65608 43.0941 3.93853 41.9718 3.57081ZM7.97552 3.01922 8.16894 3.57081C7.05143 3.93853 6.22405 4.65608 5.68679 5.72344 5.14953 6.7908 4.88089 8.13157 4.88089 9.74574 4.88089 11.4172 5.14953 12.795 5.68679 13.8791 6.22405 14.9632 7.04427 15.6891 8.14745 16.0568L7.97552 16.6084C6.57626 16.2406 5.50412 15.4491 4.75912 14.2337 4.01411 13.0183 3.64161 11.5462 3.64161 9.81738 3.64161 8.09336 4.01531 6.62126 4.7627 5.40108 5.51009 4.1809 6.58103 3.38694 7.97552 3.01922Z" fill-rule="evenodd" transform="matrix(1 0 0 1.00077 518.328 151.951)"/><text font-family="Cambria Math,Cambria Math_MSFontService,sans-serif" font-weight="400" font-size="14.6708" transform="matrix(1 0 0 1.00077 526.764 166)">𝑓′</text><text font-family="Cambria Math,Cambria Math_MSFontService,sans-serif" font-weight="400" font-size="14.6708" transform="matrix(1 0 0 1.00077 541.85 166)">∘</text><text font-family="Cambria Math,Cambria Math_MSFontService,sans-serif" font-weight="400" font-size="14.6708" transform="matrix(1 0 0 1.00077 551.605 166)">𝑓</text><text font-family="Cambria Math,Cambria Math_MSFontService,sans-serif" font-weight="400" font-size="14.6708" transform="matrix(1 0 0 1.00077 596.864 180)">𝐶</text><text fill="#BFBFBF" font-family="Cambria Math,Cambria Math_MSFontService,sans-serif" font-weight="400" font-size="14.6708" transform="matrix(1 0 0 1.00077 396.979 223)">𝐶</text><text fill="#BFBFBF" font-family="Cambria Math,Cambria Math_MSFontService,sans-serif" font-weight="400" font-size="14.6708" transform="matrix(1 0 0 1.00077 421.003 210)">𝑔′</text><path d="M0-0.66634 34.6806-0.66634 34.6806 0.66634 0 0.66634ZM27.0203-5.23995 36.0031 0 27.0203 5.23995C26.7024 5.42538 26.2944 5.31801 26.109 5.00013 25.9236 4.68225 26.0309 4.27424 26.3488 4.08881L34.3449-0.57557 34.3449 0.57557 26.3488-4.08881C26.0309-4.27424 25.9236-4.68225 26.109-5.00013 26.2944-5.31801 26.7024-5.42538 27.0203-5.23995Z" fill="#BFBFBF" transform="matrix(1 0 0 -1.00077 412.5 217.669)"/><text fill="#BFBFBF" font-family="Cambria Math,Cambria Math_MSFontService,sans-serif" font-weight="400" font-size="14.6708" transform="matrix(1 0 0 1.00077 452.42 223)">𝐵</text><path d="M0-0.66634 65.6806-0.66634 65.6806 0.66634 0 0.66634ZM58.0202-5.23995 67.003 0 58.0202 5.23995C57.7024 5.42538 57.2943 5.31801 57.1089 5.00013 56.9235 4.68225 57.0308 4.27424 57.3487 4.08881L65.3448-0.57557 65.3448 0.57557 57.3487-4.08881C57.0308-4.27424 56.9235-4.68225 57.1089-5.00013 57.2943-5.31801 57.7024-5.42538 58.0202-5.23995Z" fill="#BFBFBF" transform="matrix(1 0 0 -1.00077 466.5 217.669)"/><path d="M39.6264 3.01922C41.0209 3.38694 42.0919 4.1809 42.8393 5.40108 43.5867 6.62126 43.9603 8.09336 43.9603 9.81738 43.9603 11.5462 43.5878 13.0183 42.8428 14.2337 42.0978 15.4491 41.0257 16.2406 39.6264 16.6084L39.4545 16.0568C40.5577 15.6891 41.3779 14.9632 41.9152 13.8791 42.4524 12.795 42.7211 11.4172 42.7211 9.74574 42.7211 8.13157 42.4536 6.7908 41.9187 5.72344 41.3839 4.65608 40.5553 3.93853 39.433 3.57081ZM8.01551 3.01922 8.20892 3.57081C7.09141 3.93853 6.26403 4.65608 5.72677 5.72344 5.18951 6.7908 4.92088 8.13157 4.92088 9.74574 4.92088 11.4172 5.18951 12.795 5.72677 13.8791 6.26403 14.9632 7.08425 15.6891 8.18743 16.0568L8.01551 16.6084C6.61624 16.2406 5.5441 15.4491 4.7991 14.2337 4.05409 13.0183 3.68159 11.5462 3.68159 9.81738 3.68159 8.09336 4.05529 6.62126 4.80268 5.40108 5.55007 4.1809 6.62101 3.38694 8.01551 3.01922Z" fill="#BFBFBF" fill-rule="evenodd" transform="matrix(1 0 0 1.00077 468.89 197.362)"/><text fill="#BFBFBF" font-family="Cambria Math,Cambria Math_MSFontService,sans-serif" font-weight="400" font-size="14.6708" transform="matrix(1 0 0 1.00077 477.366 211)">𝑓</text><text fill="#BFBFBF" font-family="Cambria Math,Cambria Math_MSFontService,sans-serif" font-weight="400" font-size="14.6708" transform="matrix(1 0 0 1.00077 489.047 211)">∘</text><text fill="#BFBFBF" font-family="Cambria Math,Cambria Math_MSFontService,sans-serif" font-weight="400" font-size="14.6708" transform="matrix(1 0 0 1.00077 498.802 211)">𝑔</text><text fill="#BFBFBF" font-family="Cambria Math,Cambria Math_MSFontService,sans-serif" font-weight="400" font-size="14.6708" transform="matrix(1 0 0 1.00077 596.864 223)">𝐶</text><text fill="#BFBFBF" font-family="Cambria Math,Cambria Math_MSFontService,sans-serif" font-weight="400" font-size="14.6708" transform="matrix(1 0 0 1.00077 539.711 222)">𝐵</text><path d="M0-0.66634 34.6806-0.66634 34.6806 0.66634 0 0.66634ZM27.0203-5.23995 36.0031 0 27.0203 5.23995C26.7024 5.42538 26.2944 5.31801 26.109 5.00013 25.9236 4.68225 26.0309 4.27424 26.3488 4.08881L34.3449-0.57557 34.3449 0.57557 26.3488-4.08881C26.0309-4.27424 25.9236-4.68225 26.109-5.00013 26.2944-5.31801 26.7024-5.42538 27.0203-5.23995Z" fill="#BFBFBF" transform="matrix(1 0 0 -1.00077 554.5 217.669)"/><text fill="#BFBFBF" font-family="Cambria Math,Cambria Math_MSFontService,sans-serif" font-weight="400" font-size="14.6708" transform="matrix(1 0 0 1.00077 563.433 211)">𝑓′</text><text fill="#BFBFBF" font-family="Cambria Math,Cambria Math_MSFontService,sans-serif" font-weight="400" font-size="14.6708" transform="matrix(1 0 0 1.00077 396.312 263)">𝐶</text><text fill="#BFBFBF" font-family="Cambria Math,Cambria Math_MSFontService,sans-serif" font-weight="400" font-size="14.6708" transform="matrix(1 0 0 1.00077 420.337 250)">𝑔′</text><path d="M0-0.66634 34.6806-0.66634 34.6806 0.66634 0 0.66634ZM27.0203-5.23995 36.0031 0 27.0203 5.23995C26.7024 5.42538 26.2944 5.31801 26.109 5.00013 25.9236 4.68225 26.0309 4.27424 26.3488 4.08881L34.3449-0.57557 34.3449 0.57557 26.3488-4.08881C26.0309-4.27424 25.9236-4.68225 26.109-5.00013 26.2944-5.31801 26.7024-5.42538 27.0203-5.23995Z" fill="#BFBFBF" transform="matrix(1 0 0 -1.00077 411.5 257.7)"/><text fill="#BFBFBF" font-family="Cambria Math,Cambria Math_MSFontService,sans-serif" font-weight="400" font-size="14.6708" transform="matrix(1 0 0 1.00077 451.754 263)">𝐵</text><path d="M0-0.66634 65.6806-0.66634 65.6806 0.66634 0 0.66634ZM58.0202-5.23995 67.003 0 58.0202 5.23995C57.7024 5.42538 57.2943 5.31801 57.1089 5.00013 56.9235 4.68225 57.0308 4.27424 57.3487 4.08881L65.3448-0.57557 65.3448 0.57557 57.3487-4.08881C57.0308-4.27424 56.9235-4.68225 57.1089-5.00013 57.2943-5.31801 57.7024-5.42538 58.0202-5.23995Z" fill="#BFBFBF" transform="matrix(1 0 0 -1.00077 466.5 257.7)"/><text fill="#BFBFBF" font-family="Cambria Math,Cambria Math_MSFontService,sans-serif" font-weight="400" font-size="14.6708" transform="matrix(1 0 0 1.00077 483.183 253)">𝑖𝑑𝐵</text><text fill="#BFBFBF" font-family="Cambria Math,Cambria Math_MSFontService,sans-serif" font-weight="400" font-size="14.6708" transform="matrix(1 0 0 1.00077 596.197 263)">𝐶</text><text fill="#BFBFBF" font-family="Cambria Math,Cambria Math_MSFontService,sans-serif" font-weight="400" font-size="14.6708" transform="matrix(1 0 0 1.00077 539.045 262)">𝐵</text><path d="M0-0.66634 34.6806-0.66634 34.6806 0.66634 0 0.66634ZM27.0203-5.23995 36.0031 0 27.0203 5.23995C26.7024 5.42538 26.2944 5.31801 26.109 5.00013 25.9236 4.68225 26.0309 4.27424 26.3488 4.08881L34.3449-0.57557 34.3449 0.57557 26.3488-4.08881C26.0309-4.27424 25.9236-4.68225 26.109-5.00013 26.2944-5.31801 26.7024-5.42538 27.0203-5.23995Z" fill="#BFBFBF" transform="matrix(1 0 0 -1.00077 554.5 257.7)"/><text fill="#BFBFBF" font-family="Cambria Math,Cambria Math_MSFontService,sans-serif" font-weight="400" font-size="14.6708" transform="matrix(1 0 0 1.00077 562.767 251)">𝑓′</text><text fill="#BFBFBF" font-family="Cambria Math,Cambria Math_MSFontService,sans-serif" font-weight="400" font-size="14.6708" transform="matrix(1 0 0 1.00077 394.979 300)">𝐶</text><path d="M0-0.66634 34.6806-0.66634 34.6806 0.66634 0 0.66634ZM27.0203-5.23995 36.0031 0 27.0203 5.23995C26.7024 5.42538 26.2944 5.31801 26.109 5.00013 25.9236 4.68225 26.0309 4.27424 26.3488 4.08881L34.3449-0.57557 34.3449 0.57557 26.3488-4.08881C26.0309-4.27424 25.9236-4.68225 26.109-5.00013 26.2944-5.31801 26.7024-5.42538 27.0203-5.23995Z" fill="#BFBFBF" transform="matrix(1 0 0 -1.00077 410.5 293.727)"/><text fill="#BFBFBF" font-family="Cambria Math,Cambria Math_MSFontService,sans-serif" font-weight="400" font-size="14.6708" transform="matrix(1 0 0 1.00077 450.421 300)">𝐵</text><text fill="#BFBFBF" font-family="Cambria Math,Cambria Math_MSFontService,sans-serif" font-weight="400" font-size="14.6708" transform="matrix(1 0 0 1.00077 510.24 300)">𝐶</text><path d="M0-0.66634 34.6806-0.66634 34.6806 0.66634 0 0.66634ZM27.0203-5.23995 36.0031 0 27.0203 5.23995C26.7024 5.42538 26.2944 5.31801 26.109 5.00013 25.9236 4.68225 26.0309 4.27424 26.3488 4.08881L34.3449-0.57557 34.3449 0.57557 26.3488-4.08881C26.0309-4.27424 25.9236-4.68225 26.109-5.00013 26.2944-5.31801 26.7024-5.42538 27.0203-5.23995Z" fill="#BFBFBF" transform="matrix(1 0 0 -1.00077 468.5 293.727)"/><text fill="#BFBFBF" font-family="Cambria Math,Cambria Math_MSFontService,sans-serif" font-weight="400" font-size="14.6708" transform="matrix(1 0 0 1.00077 476.809 288)">𝑓′</text><text fill="#BFBFBF" font-family="Cambria Math,Cambria Math_MSFontService,sans-serif" font-weight="400" font-size="14.6708" transform="matrix(1 0 0 1.00077 419.67 286)">𝑔′</text><text font-family="Cambria Math,Cambria Math_MSFontService,sans-serif" font-weight="400" font-size="14.6708" transform="matrix(1 0 0 1.00077 394.979 336)">𝐶</text><text font-family="Cambria Math,Cambria Math_MSFontService,sans-serif" font-weight="400" font-size="14.6708" transform="matrix(1 0 0 1.00077 447.604 337)">𝐶</text><path d="M0-0.66634 37.6807-0.66634 37.6807 0.66634 0 0.66634ZM30.0203-5.23995 39.0031 0 30.0203 5.23995C29.7024 5.42538 29.2944 5.31801 29.109 5.00013 28.9236 4.68225 29.0309 4.27424 29.3488 4.08881L37.3449-0.57557 37.3449 0.57557 29.3488-4.08881C29.0309-4.27424 28.9236-4.68225 29.109-5.00013 29.2944-5.31801 29.7024-5.42538 30.0203-5.23995Z" fill="#172C51" transform="matrix(1 0 0 -1.00077 407.5 330.756)"/><text font-family="Cambria Math,Cambria Math_MSFontService,sans-serif" font-weight="400" font-size="14.6708" transform="matrix(1 0 0 1.00077 410.498 327)">𝑖𝑑</text><text font-family="Cambria Math,Cambria Math_MSFontService,sans-serif" font-weight="400" font-size="14.6708" transform="matrix(1 0 0 1.00077 423.659 327)">C</text><text font-family="Cambria Math,Cambria Math_MSFontService,sans-serif" font-weight="400" font-size="14.6708" transform="matrix(1 0 0 1.00077 394.384 395)">𝐴</text><path d="M42.1652 3.01922C43.5597 3.38694 44.6306 4.1809 45.378 5.40108 46.1254 6.62126 46.4991 8.09336 46.4991 9.81738 46.4991 11.5462 46.1266 13.0183 45.3816 14.2337 44.6366 15.4491 43.5645 16.2406 42.1652 16.6084L41.9933 16.0568C43.0964 15.6891 43.9167 14.9632 44.4539 13.8791 44.9912 12.795 45.2598 11.4172 45.2598 9.74574 45.2598 8.13157 44.9924 6.7908 44.4575 5.72344 43.9226 4.65608 43.0941 3.93853 41.9718 3.57081ZM7.97552 3.01922 8.16894 3.57081C7.05143 3.93853 6.22405 4.65608 5.68679 5.72344 5.14953 6.7908 4.88089 8.13157 4.88089 9.74574 4.88089 11.4172 5.14953 12.795 5.68679 13.8791 6.22405 14.9632 7.04427 15.6891 8.14745 16.0568L7.97552 16.6084C6.57626 16.2406 5.50412 15.4491 4.75912 14.2337 4.01411 13.0183 3.64161 11.5462 3.64161 9.81738 3.64161 8.09336 4.01531 6.62126 4.7627 5.40108 5.51009 4.1809 6.58103 3.38694 7.97552 3.01922Z" fill-rule="evenodd" transform="matrix(1 0 0 1.00077 420.943 366.594)"/><text font-family="Cambria Math,Cambria Math_MSFontService,sans-serif" font-weight="400" font-size="14.6708" transform="matrix(1 0 0 1.00077 429.379 381)">𝑓′</text><text font-family="Cambria Math,Cambria Math_MSFontService,sans-serif" font-weight="400" font-size="14.6708" transform="matrix(1 0 0 1.00077 444.465 381)">∘</text><text font-family="Cambria Math,Cambria Math_MSFontService,sans-serif" font-weight="400" font-size="14.6708" transform="matrix(1 0 0 1.00077 454.22 381)">𝑓</text><path d="M409.5 389.135 489.181 389.135 489.181 390.469 409.5 390.469ZM481.52 384.558 490.503 389.802 481.52 395.046C481.202 395.231 480.794 395.124 480.609 394.806 480.424 394.488 480.531 394.079 480.849 393.894L488.845 389.226 488.845 390.378 480.849 385.71C480.531 385.524 480.424 385.116 480.609 384.798 480.794 384.48 481.202 384.372 481.52 384.558Z" fill="#172C51"/><text font-family="Cambria Math,Cambria Math_MSFontService,sans-serif" font-weight="400" font-size="14.6708" transform="matrix(1 0 0 1.00077 492.418 395)">𝐶</text><path d="M508.5 389.135 588.181 389.135 588.181 390.469 508.5 390.469ZM580.52 384.558 589.503 389.802 580.52 395.046C580.202 395.231 579.794 395.124 579.609 394.806 579.424 394.488 579.531 394.079 579.849 393.894L587.845 389.226 587.845 390.378 579.849 385.71C579.531 385.524 579.424 385.116 579.609 384.798 579.794 384.48 580.202 384.372 580.52 384.558Z" fill="#172C51"/><path d="M43.9976 3.01922C45.3921 3.38694 46.4631 4.1809 47.2104 5.40108 47.9578 6.62126 48.3315 8.09336 48.3315 9.81738 48.3315 11.5462 47.959 13.0183 47.214 14.2337 46.469 15.4491 45.3969 16.2406 43.9976 16.6084L43.8257 16.0568C44.9289 15.6891 45.7491 14.9632 46.2864 13.8791 46.8236 12.795 47.0923 11.4172 47.0923 9.74574 47.0923 8.13157 46.8248 6.7908 46.2899 5.72344 45.7551 4.65608 44.9265 3.93853 43.8042 3.57081ZM7.98219 3.01922 8.1756 3.57081C7.0581 3.93853 6.23071 4.65608 5.69345 5.72344 5.15619 6.7908 4.88756 8.13157 4.88756 9.74574 4.88756 11.4172 5.15619 12.795 5.69345 13.8791 6.23071 14.9632 7.05093 15.6891 8.15411 16.0568L7.98219 16.6084C6.58292 16.2406 5.51078 15.4491 4.76578 14.2337 4.02078 13.0183 3.64827 11.5462 3.64827 9.81738 3.64827 8.09336 4.02197 6.62126 4.76936 5.40108 5.51675 4.1809 6.58769 3.38694 7.98219 3.01922Z" fill-rule="evenodd" transform="matrix(1 0 0 1.00077 515.727 367.409)"/><text font-family="Cambria Math,Cambria Math_MSFontService,sans-serif" font-weight="400" font-size="14.6708" transform="matrix(1 0 0 1.00077 524.169 381)">𝑔</text><text font-family="Cambria Math,Cambria Math_MSFontService,sans-serif" font-weight="400" font-size="14.6708" transform="matrix(1 0 0 1.00077 536.676 381)">∘</text><text font-family="Cambria Math,Cambria Math_MSFontService,sans-serif" font-weight="400" font-size="14.6708" transform="matrix(1 0 0 1.00077 546.431 381)">𝑔′</text><text font-family="Cambria Math,Cambria Math_MSFontService,sans-serif" font-weight="400" font-size="14.6708" transform="matrix(1 0 0 1.00077 594.269 395)">𝐴</text><text fill="#BFBFBF" font-family="Cambria Math,Cambria Math_MSFontService,sans-serif" font-weight="400" font-size="14.6708" transform="matrix(1 0 0 1.00077 393.884 438)">𝐴</text><text fill="#BFBFBF" font-family="Cambria Math,Cambria Math_MSFontService,sans-serif" font-weight="400" font-size="14.6708" transform="matrix(1 0 0 1.00077 418.355 425)">𝑓</text><path d="M0-0.66634 34.6806-0.66634 34.6806 0.66634 0 0.66634ZM27.0203-5.23995 36.0031 0 27.0203 5.23995C26.7024 5.42538 26.2944 5.31801 26.109 5.00013 25.9236 4.68225 26.0309 4.27424 26.3488 4.08881L34.3449-0.57557 34.3449 0.57557 26.3488-4.08881C26.0309-4.27424 25.9236-4.68225 26.109-5.00013 26.2944-5.31801 26.7024-5.42538 27.0203-5.23995Z" fill="#BFBFBF" transform="matrix(1 0 0 -1.00077 409.5 432.835)"/><text fill="#BFBFBF" font-family="Cambria Math,Cambria Math_MSFontService,sans-serif" font-weight="400" font-size="14.6708" transform="matrix(1 0 0 1.00077 449.819 439)">𝐵</text><path d="M0-0.66634 65.6807-0.66634 65.6807 0.66634 0 0.66634ZM58.0203-5.23995 67.0031 0 58.0203 5.23995C57.7025 5.42538 57.2944 5.31801 57.109 5.00013 56.9236 4.68225 57.031 4.27424 57.3488 4.08881L65.3449-0.57557 65.3449 0.57557 57.3488-4.08881C57.031-4.27424 56.9236-4.68225 57.109-5.00013 57.2944-5.31801 57.7025-5.42538 58.0203-5.23995Z" fill="#BFBFBF" transform="matrix(1 0 0 -1.00077 464.5 432.835)"/><path d="M46.6163 3.01922C48.0108 3.38694 49.0818 4.1809 49.8292 5.40108 50.5766 6.62126 50.9503 8.09336 50.9503 9.81738 50.9503 11.5462 50.5778 13.0183 49.8327 14.2337 49.0877 15.4491 48.0156 16.2406 46.6163 16.6084L46.4444 16.0568C47.5476 15.6891 48.3678 14.9632 48.9051 13.8791 49.4423 12.795 49.711 11.4172 49.711 9.74574 49.711 8.13157 49.4435 6.7908 48.9087 5.72344 48.3738 4.65608 47.5452 3.93853 46.4229 3.57081ZM8.02217 3.01922 8.21558 3.57081C7.09808 3.93853 6.27069 4.65608 5.73343 5.72344 5.19617 6.7908 4.92754 8.13157 4.92754 9.74574 4.92754 11.4172 5.19617 12.795 5.73343 13.8791 6.27069 14.9632 7.09091 15.6891 8.19409 16.0568L8.02217 16.6084C6.6229 16.2406 5.55076 15.4491 4.80576 14.2337 4.06076 13.0183 3.68825 11.5462 3.68825 9.81738 3.68825 8.09336 4.06195 6.62126 4.80934 5.40108 5.55673 4.1809 6.62768 3.38694 8.02217 3.01922Z" fill="#BFBFBF" fill-rule="evenodd" transform="matrix(1 0 0 1.00077 466.289 412.821)"/><text fill="#BFBFBF" font-family="Cambria Math,Cambria Math_MSFontService,sans-serif" font-weight="400" font-size="14.6708" transform="matrix(1 0 0 1.00077 474.771 427)">𝑔′</text><text fill="#BFBFBF" font-family="Cambria Math,Cambria Math_MSFontService,sans-serif" font-weight="400" font-size="14.6708" transform="matrix(1 0 0 1.00077 490.857 427)">∘</text><text fill="#BFBFBF" font-family="Cambria Math,Cambria Math_MSFontService,sans-serif" font-weight="400" font-size="14.6708" transform="matrix(1 0 0 1.00077 500.612 427)">𝑓′</text><text fill="#BFBFBF" font-family="Cambria Math,Cambria Math_MSFontService,sans-serif" font-weight="400" font-size="14.6708" transform="matrix(1 0 0 1.00077 594.269 439)">𝐴</text><text fill="#BFBFBF" font-family="Cambria Math,Cambria Math_MSFontService,sans-serif" font-weight="400" font-size="14.6708" transform="matrix(1 0 0 1.00077 537.11 438)">𝐵</text><path d="M0-0.66634 34.6806-0.66634 34.6806 0.66634 0 0.66634ZM27.0203-5.23995 36.0031 0 27.0203 5.23995C26.7024 5.42538 26.2944 5.31801 26.109 5.00013 25.9236 4.68225 26.0309 4.27424 26.3488 4.08881L34.3449-0.57557 34.3449 0.57557 26.3488-4.08881C26.0309-4.27424 25.9236-4.68225 26.109-5.00013 26.2944-5.31801 26.7024-5.42538 27.0203-5.23995Z" fill="#BFBFBF" transform="matrix(1 0 0 -1.00077 552.5 432.835)"/><text fill="#BFBFBF" font-family="Cambria Math,Cambria Math_MSFontService,sans-serif" font-weight="400" font-size="14.6708" transform="matrix(1 0 0 1.00077 560.792 427)">𝑔</text><text fill="#BFBFBF" font-family="Cambria Math,Cambria Math_MSFontService,sans-serif" font-weight="400" font-size="14.6708" transform="matrix(1 0 0 1.00077 393.718 479)">𝐴</text><text fill="#BFBFBF" font-family="Cambria Math,Cambria Math_MSFontService,sans-serif" font-weight="400" font-size="14.6708" transform="matrix(1 0 0 1.00077 417.689 465)">𝑓</text><path d="M0-0.66634 34.6806-0.66634 34.6806 0.66634 0 0.66634ZM27.0203-5.23995 36.0031 0 27.0203 5.23995C26.7024 5.42538 26.2944 5.31801 26.109 5.00013 25.9236 4.68225 26.0309 4.27424 26.3488 4.08881L34.3449-0.57557 34.3449 0.57557 26.3488-4.08881C26.0309-4.27424 25.9236-4.68225 26.109-5.00013 26.2944-5.31801 26.7024-5.42538 27.0203-5.23995Z" fill="#BFBFBF" transform="matrix(1 0 0 -1.00077 408.5 472.866)"/><text fill="#BFBFBF" font-family="Cambria Math,Cambria Math_MSFontService,sans-serif" font-weight="400" font-size="14.6708" transform="matrix(1 0 0 1.00077 449.153 479)">𝐵</text><path d="M0-0.66634 65.6806-0.66634 65.6806 0.66634 0 0.66634ZM58.0202-5.23995 67.003 0 58.0202 5.23995C57.7024 5.42538 57.2943 5.31801 57.1089 5.00013 56.9235 4.68225 57.0308 4.27424 57.3487 4.08881L65.3448-0.57557 65.3448 0.57557 57.3487-4.08881C57.0308-4.27424 56.9235-4.68225 57.1089-5.00013 57.2943-5.31801 57.7024-5.42538 58.0202-5.23995Z" fill="#BFBFBF" transform="matrix(1 0 0 -1.00077 463.5 472.866)"/><text fill="#BFBFBF" font-family="Cambria Math,Cambria Math_MSFontService,sans-serif" font-weight="400" font-size="14.6708" transform="matrix(1 0 0 1.00077 480.582 469)">𝑖𝑑𝐵</text><text fill="#BFBFBF" font-family="Cambria Math,Cambria Math_MSFontService,sans-serif" font-weight="400" font-size="14.6708" transform="matrix(1 0 0 1.00077 593.603 479)">𝐴</text><text fill="#BFBFBF" font-family="Cambria Math,Cambria Math_MSFontService,sans-serif" font-weight="400" font-size="14.6708" transform="matrix(1 0 0 1.00077 536.443 478)">𝐵</text><path d="M0-0.66634 34.6806-0.66634 34.6806 0.66634 0 0.66634ZM27.0203-5.23995 36.0031 0 27.0203 5.23995C26.7024 5.42538 26.2944 5.31801 26.109 5.00013 25.9236 4.68225 26.0309 4.27424 26.3488 4.08881L34.3449-0.57557 34.3449 0.57557 26.3488-4.08881C26.0309-4.27424 25.9236-4.68225 26.109-5.00013 26.2944-5.31801 26.7024-5.42538 27.0203-5.23995Z" fill="#BFBFBF" transform="matrix(1 0 0 -1.00077 551.5 472.866)"/><text fill="#BFBFBF" font-family="Cambria Math,Cambria Math_MSFontService,sans-serif" font-weight="400" font-size="14.6708" transform="matrix(1 0 0 1.00077 560.125 467)">𝑔</text><text fill="#BFBFBF" font-family="Cambria Math,Cambria Math_MSFontService,sans-serif" font-weight="400" font-size="14.6708" transform="matrix(1 0 0 1.00077 392.385 515)">𝐴</text><path d="M0-0.66634 34.6806-0.66634 34.6806 0.66634 0 0.66634ZM27.0203-5.23995 36.0031 0 27.0203 5.23995C26.7024 5.42538 26.2944 5.31801 26.109 5.00013 25.9236 4.68225 26.0309 4.27424 26.3488 4.08881L34.3449-0.57557 34.3449 0.57557 26.3488-4.08881C26.0309-4.27424 25.9236-4.68225 26.109-5.00013 26.2944-5.31801 26.7024-5.42538 27.0203-5.23995Z" fill="#BFBFBF" transform="matrix(1 0 0 -1.00077 407.5 509.895)"/><text fill="#BFBFBF" font-family="Cambria Math,Cambria Math_MSFontService,sans-serif" font-weight="400" font-size="14.6708" transform="matrix(1 0 0 1.00077 447.82 515)">𝐵</text><text fill="#BFBFBF" font-family="Cambria Math,Cambria Math_MSFontService,sans-serif" font-weight="400" font-size="14.6708" transform="matrix(1 0 0 1.00077 507.645 515)">𝐴</text><path d="M0-0.66634 34.6806-0.66634 34.6806 0.66634 0 0.66634ZM27.0203-5.23995 36.0031 0 27.0203 5.23995C26.7024 5.42538 26.2944 5.31801 26.109 5.00013 25.9236 4.68225 26.0309 4.27424 26.3488 4.08881L34.3449-0.57557 34.3449 0.57557 26.3488-4.08881C26.0309-4.27424 25.9236-4.68225 26.109-5.00013 26.2944-5.31801 26.7024-5.42538 27.0203-5.23995Z" fill="#BFBFBF" transform="matrix(1 0 0 -1.00077 465.5 509.895)"/><text fill="#BFBFBF" font-family="Cambria Math,Cambria Math_MSFontService,sans-serif" font-weight="400" font-size="14.6708" transform="matrix(1 0 0 1.00077 474.168 504)">𝑔</text><text fill="#BFBFBF" font-family="Cambria Math,Cambria Math_MSFontService,sans-serif" font-weight="400" font-size="14.6708" transform="matrix(1 0 0 1.00077 417.023 502)">𝑓</text><text font-family="Cambria Math,Cambria Math_MSFontService,sans-serif" font-weight="400" font-size="14.6708" transform="matrix(1 0 0 1.00077 392.385 552)">𝐴</text><text font-family="Cambria Math,Cambria Math_MSFontService,sans-serif" font-weight="400" font-size="14.6708" transform="matrix(1 0 0 1.00077 445.009 552)">𝐴</text><path d="M0-0.66634 37.6807-0.66634 37.6807 0.66634 0 0.66634ZM30.0203-5.23995 39.0031 0 30.0203 5.23995C29.7024 5.42538 29.2944 5.31801 29.109 5.00013 28.9236 4.68225 29.0309 4.27424 29.3488 4.08881L37.3449-0.57557 37.3449 0.57557 29.3488-4.08881C29.0309-4.27424 28.9236-4.68225 29.109-5.00013 29.2944-5.31801 29.7024-5.42538 30.0203-5.23995Z" fill="#172C51" transform="matrix(1 0 0 -1.00077 404.5 545.923)"/><text font-family="Cambria Math,Cambria Math_MSFontService,sans-serif" font-weight="400" font-size="14.6708" transform="matrix(1 0 0 1.00077 407.911 542)">𝑖𝑑𝐴</text><path d="M27.5 143.611 350.5 143.611" stroke="#172C51" stroke-width="1.33268" stroke-miterlimit="8" fill="none" fill-rule="evenodd"/><path d="M26.5 355.775 349.5 355.775" stroke="#172C51" stroke-width="1.33268" stroke-miterlimit="8" fill="none" fill-rule="evenodd"/><path d="M151.39 179.094 156.213 182.502 159.654 186.414 161.643 190.683 162.158 195.164 161.202 199.696 158.804 204.14 155.137 207.909 154.182 206.979 157.785 203.276 157.676 203.425 159.984 199.147 159.918 199.326 160.832 194.995 160.822 195.209 160.332 190.943 160.39 191.148 158.486 187.065 158.59 187.224 155.264 183.442 155.38 183.546 150.622 180.184ZM158.221 209.698 149.5 211.664 153.161 203.502Z" fill="#172C51"/><path d="M151.39 220.126 156.213 223.534 159.654 227.446 161.643 231.714 162.158 236.196 161.202 240.728 158.804 245.172 155.137 248.941 154.182 248.01 157.785 244.308 157.676 244.456 159.984 240.179 159.918 240.358 160.832 236.027 160.822 236.241 160.332 231.974 160.39 232.18 158.486 228.097 158.59 228.255 155.264 224.474 155.38 224.578 150.622 221.216ZM158.221 250.73 149.5 252.696 153.161 244.533Z" fill="#172C51"/><path d="M150.39 260.157 155.213 263.565 158.654 267.477 160.643 271.745 161.158 276.227 160.202 280.759 157.804 285.203 154.137 288.972 153.182 288.041 156.785 284.339 156.676 284.488 158.984 280.21 158.918 280.389 159.832 276.058 159.822 276.272 159.332 272.005 159.39 272.211 157.486 268.128 157.59 268.286 154.264 264.505 154.38 264.609 149.622 261.247ZM157.221 290.761 148.5 292.727 152.161 284.564Z" fill="#172C51"/><path d="M150.39 299.187 155.213 302.595 158.654 306.507 160.643 310.776 161.158 315.257 160.202 319.789 157.804 324.233 154.137 328.002 153.182 327.072 156.785 323.369 156.676 323.518 158.984 319.24 158.918 319.419 159.832 315.088 159.822 315.302 159.332 311.035 159.39 311.241 157.486 307.158 157.59 307.317 154.264 303.535 154.38 303.639 149.622 300.277ZM157.221 329.791 148.5 331.757 152.161 323.595Z" fill="#172C51"/><text font-family="Yu Gothic,Yu Gothic_MSFontService,sans-serif" font-weight="400" font-size="14.6708" transform="matrix(1 0 0 1.00077 167.064 200)">結合律</text><text font-family="Cambria Math,Cambria Math_MSFontService,sans-serif" font-weight="400" font-size="14.6708" transform="matrix(1 0 0 1.00077 168.562 238)">𝑓</text><text font-family="Cambria Math,Cambria Math_MSFontService,sans-serif" font-weight="400" font-size="14.6708" transform="matrix(1 0 0 1.00077 176.984 238)">,</text><text font-family="Cambria Math,Cambria Math_MSFontService,sans-serif" font-weight="400" font-size="14.6708" transform="matrix(1 0 0 1.00077 182.428 238)">𝑔</text><text font-family="Yu Gothic,Yu Gothic_MSFontService,sans-serif" font-weight="400" font-size="14.6708" transform="matrix(1 0 0 1.00077 191.424 238)">は</text><text font-family="Yu Gothic,Yu Gothic_MSFontService,sans-serif" font-weight="400" font-size="14.6708" transform="matrix(1 0 0 1.00077 206.083 238)">可逆</text><text font-family="Cambria Math,Cambria Math_MSFontService,sans-serif" font-weight="400" font-size="14.6708" transform="matrix(1 0 0 1.00077 235.402 238)">⇒</text><text font-family="Cambria Math,Cambria Math_MSFontService,sans-serif" font-weight="400" font-size="14.6708" transform="matrix(1 0 0 1.00077 248.063 238)">𝑓</text><text font-family="Cambria Math,Cambria Math_MSFontService,sans-serif" font-weight="400" font-size="14.6708" transform="matrix(1 0 0 1.00077 259.744 238)">∘</text><text font-family="Cambria Math,Cambria Math_MSFontService,sans-serif" font-weight="400" font-size="14.6708" transform="matrix(1 0 0 1.00077 269.499 238)">𝑔</text><text font-family="Cambria Math,Cambria Math_MSFontService,sans-serif" font-weight="400" font-size="14.6708" transform="matrix(1 0 0 1.00077 282.819 238)">=</text><text font-family="Cambria Math,Cambria Math_MSFontService,sans-serif" font-weight="400" font-size="14.6708" transform="matrix(1 0 0 1.00077 297.885 238)">𝑖𝑑𝐵</text><text font-family="Cambria Math,Cambria Math_MSFontService,sans-serif" font-weight="400" font-size="14.6708" transform="matrix(1 0 0 1.00077 168.562 279)">𝑖𝑑𝐵</text><text font-family="MS Mincho,MS Mincho_MSFontService,sans-serif" font-weight="400" font-size="14.6708" transform="matrix(1 0 0 1.00077 191.384 279)">は</text><text font-family="Yu Gothic,Yu Gothic_MSFontService,sans-serif" font-weight="400" font-size="14.6708" transform="matrix(1 0 0 1.00077 206.043 279)">削除可能</text><text font-family="Cambria Math,Cambria Math_MSFontService,sans-serif" font-weight="400" font-size="14.6708" transform="matrix(1 0 0 1.00077 168.562 319)">𝑓′</text><text font-family="Cambria Math,Cambria Math_MSFontService,sans-serif" font-weight="400" font-size="14.6708" transform="matrix(1 0 0 1.00077 180.389 319)">,</text><text font-family="Cambria Math,Cambria Math_MSFontService,sans-serif" font-weight="400" font-size="14.6708" transform="matrix(1 0 0 1.00077 185.833 319)">𝑔′</text><text font-family="Yu Gothic,Yu Gothic_MSFontService,sans-serif" font-weight="400" font-size="14.6708" transform="matrix(1 0 0 1.00077 198.66 319)">は</text><text font-family="Yu Gothic,Yu Gothic_MSFontService,sans-serif" font-weight="400" font-size="14.6708" transform="matrix(1 0 0 1.00077 213.32 319)">可逆</text><text font-family="Cambria Math,Cambria Math_MSFontService,sans-serif" font-weight="400" font-size="14.6708" transform="matrix(1 0 0 1.00077 242.639 319)">⇒</text><text font-family="Cambria Math,Cambria Math_MSFontService,sans-serif" font-weight="400" font-size="14.6708" transform="matrix(1 0 0 1.00077 255.299 319)">𝑓′</text><text font-family="Cambria Math,Cambria Math_MSFontService,sans-serif" font-weight="400" font-size="14.6708" transform="matrix(1 0 0 1.00077 270.385 319)">∘</text><text font-family="Cambria Math,Cambria Math_MSFontService,sans-serif" font-weight="400" font-size="14.6708" transform="matrix(1 0 0 1.00077 280.14 319)">𝑔′</text><text font-family="Cambria Math,Cambria Math_MSFontService,sans-serif" font-weight="400" font-size="14.6708" transform="matrix(1 0 0 1.00077 297.039 319)">=</text><text font-family="Cambria Math,Cambria Math_MSFontService,sans-serif" font-weight="400" font-size="14.6708" transform="matrix(1 0 0 1.00077 312.105 319)">𝑖𝑑𝐶</text><path d="M152.39 391.259 157.213 394.666 160.654 398.579 162.643 402.847 163.158 407.328 162.202 411.86 159.804 416.305 156.137 420.073 155.182 419.143 158.785 415.441 158.676 415.589 160.984 411.311 160.918 411.49 161.832 407.159 161.822 407.373 161.332 403.107 161.39 403.312 159.486 399.229 159.59 399.388 156.264 395.606 156.38 395.71 151.622 392.348ZM159.221 421.862 150.5 423.828 154.161 415.666Z" fill="#172C51"/><path d="M152.39 432.29 157.213 435.698 160.654 439.61 162.643 443.879 163.158 448.36 162.202 452.892 159.804 457.336 156.137 461.105 155.182 460.175 158.785 456.472 158.676 456.621 160.984 452.343 160.918 452.522 161.832 448.191 161.822 448.405 161.332 444.139 161.39 444.344 159.486 440.261 159.59 440.42 156.264 436.638 156.38 436.742 151.622 433.38ZM159.221 462.894 150.5 464.86 154.161 456.698Z" fill="#172C51"/><path d="M151.39 472.321 156.213 475.729 159.654 479.641 161.643 483.91 162.158 488.391 161.202 492.923 158.804 497.367 155.137 501.136 154.182 500.206 157.785 496.503 157.676 496.652 159.984 492.374 159.918 492.553 160.832 488.222 160.822 488.436 160.332 484.17 160.39 484.375 158.486 480.292 158.59 480.451 155.264 476.669 155.38 476.773 150.622 473.411ZM158.221 502.925 149.5 504.891 153.161 496.729Z" fill="#172C51"/><path d="M151.39 511.352 156.213 514.759 159.654 518.672 161.643 522.94 162.158 527.422 161.202 531.953 158.804 536.398 155.137 540.166 154.182 539.236 157.785 535.534 157.676 535.682 159.984 531.404 159.918 531.583 160.832 527.252 160.822 527.466 160.332 523.2 160.39 523.406 158.486 519.322 158.59 519.481 155.264 515.699 155.38 515.803 150.622 512.441ZM158.221 541.955 149.5 543.921 153.161 535.759Z" fill="#172C51"/><text font-family="Yu Gothic,Yu Gothic_MSFontService,sans-serif" font-weight="400" font-size="14.6708" transform="matrix(1 0 0 1.00077 167.902 413)">結合律</text><text font-family="Cambria Math,Cambria Math_MSFontService,sans-serif" font-weight="400" font-size="14.6708" transform="matrix(1 0 0 1.00077 169.399 450)">𝑔′</text><text font-family="Cambria Math,Cambria Math_MSFontService,sans-serif" font-weight="400" font-size="14.6708" transform="matrix(1 0 0 1.00077 182.226 450)">,</text><text font-family="Cambria Math,Cambria Math_MSFontService,sans-serif" font-weight="400" font-size="14.6708" transform="matrix(1 0 0 1.00077 187.67 450)">𝑓′</text><text font-family="Yu Gothic,Yu Gothic_MSFontService,sans-serif" font-weight="400" font-size="14.6708" transform="matrix(1 0 0 1.00077 199.497 450)">は</text><text font-family="Yu Gothic,Yu Gothic_MSFontService,sans-serif" font-weight="400" font-size="14.6708" transform="matrix(1 0 0 1.00077 214.157 450)">可逆</text><text font-family="Cambria Math,Cambria Math_MSFontService,sans-serif" font-weight="400" font-size="14.6708" transform="matrix(1 0 0 1.00077 243.476 450)">⇒</text><text font-family="Cambria Math,Cambria Math_MSFontService,sans-serif" font-weight="400" font-size="14.6708" transform="matrix(1 0 0 1.00077 256.136 450)">𝑔′</text><text font-family="Cambria Math,Cambria Math_MSFontService,sans-serif" font-weight="400" font-size="14.6708" transform="matrix(1 0 0 1.00077 272.222 450)">∘</text><text font-family="Cambria Math,Cambria Math_MSFontService,sans-serif" font-weight="400" font-size="14.6708" transform="matrix(1 0 0 1.00077 281.977 450)">𝑓′</text><text font-family="Cambria Math,Cambria Math_MSFontService,sans-serif" font-weight="400" font-size="14.6708" transform="matrix(1 0 0 1.00077 297.876 450)">=</text><text font-family="Cambria Math,Cambria Math_MSFontService,sans-serif" font-weight="400" font-size="14.6708" transform="matrix(1 0 0 1.00077 312.942 450)">𝑖𝑑𝐵</text><text font-family="Cambria Math,Cambria Math_MSFontService,sans-serif" font-weight="400" font-size="14.6708" transform="matrix(1 0 0 1.00077 169.399 491)">𝑖𝑑𝐵</text><text font-family="MS Mincho,MS Mincho_MSFontService,sans-serif" font-weight="400" font-size="14.6708" transform="matrix(1 0 0 1.00077 192.221 491)">は</text><text font-family="Yu Gothic,Yu Gothic_MSFontService,sans-serif" font-weight="400" font-size="14.6708" transform="matrix(1 0 0 1.00077 206.88 491)">削除可能</text><text font-family="Cambria Math,Cambria Math_MSFontService,sans-serif" font-weight="400" font-size="14.6708" transform="matrix(1 0 0 1.00077 169.399 531)">𝑔</text><text font-family="Cambria Math,Cambria Math_MSFontService,sans-serif" font-weight="400" font-size="14.6708" transform="matrix(1 0 0 1.00077 178.647 531)">,</text><text font-family="Cambria Math,Cambria Math_MSFontService,sans-serif" font-weight="400" font-size="14.6708" transform="matrix(1 0 0 1.00077 184.091 531)">𝑓</text><text font-family="Yu Gothic,Yu Gothic_MSFontService,sans-serif" font-weight="400" font-size="14.6708" transform="matrix(1 0 0 1.00077 192.088 531)">は</text><text font-family="Yu Gothic,Yu Gothic_MSFontService,sans-serif" font-weight="400" font-size="14.6708" transform="matrix(1 0 0 1.00077 206.747 531)">可逆</text><text font-family="Cambria Math,Cambria Math_MSFontService,sans-serif" font-weight="400" font-size="14.6708" transform="matrix(1 0 0 1.00077 236.066 531)">⇒</text><text font-family="Cambria Math,Cambria Math_MSFontService,sans-serif" font-weight="400" font-size="14.6708" transform="matrix(1 0 0 1.00077 248.726 531)">𝑔</text><text font-family="Cambria Math,Cambria Math_MSFontService,sans-serif" font-weight="400" font-size="14.6708" transform="matrix(1 0 0 1.00077 261.234 531)">∘</text><text font-family="Cambria Math,Cambria Math_MSFontService,sans-serif" font-weight="400" font-size="14.6708" transform="matrix(1 0 0 1.00077 270.989 531)">𝑓</text><text font-family="Cambria Math,Cambria Math_MSFontService,sans-serif" font-weight="400" font-size="14.6708" transform="matrix(1 0 0 1.00077 283.483 531)">=</text><text font-family="Cambria Math,Cambria Math_MSFontService,sans-serif" font-weight="400" font-size="14.6708" transform="matrix(1 0 0 1.00077 298.549 531)">𝑖𝑑𝐴</text><path d="M395.5 142.61 651.5 142.61" stroke="#172C51" stroke-width="1.33268" stroke-miterlimit="8" fill="none" fill-rule="evenodd"/><path d="M394.5 354.775 650.5 354.775" stroke="#172C51" stroke-width="1.33268" stroke-miterlimit="8" fill="none" fill-rule="evenodd"/><text font-family="Cambria Math,Cambria Math_MSFontService,sans-serif" font-weight="400" font-size="14.6708" transform="matrix(1 0 0 1.00077 33.7407 75)">𝑖𝑑𝐴</text><text font-family="Cambria Math,Cambria Math_MSFontService,sans-serif" font-weight="400" font-size="14.6708" transform="matrix(1 0 0 1.00077 56.3696 75)">:</text><text font-family="Cambria Math,Cambria Math_MSFontService,sans-serif" font-weight="400" font-size="14.6708" transform="matrix(1 0 0 1.00077 77.306 75)">𝐴</text><text font-family="Cambria Math,Cambria Math_MSFontService,sans-serif" font-weight="400" font-size="14.6708" transform="matrix(1 0 0 1.00077 86.7747 75)"></text><text font-family="Cambria Math,Cambria Math_MSFontService,sans-serif" font-weight="400" font-size="14.6708" transform="matrix(1 0 0 1.00077 94.0112 75)">→</text><text font-family="Cambria Math,Cambria Math_MSFontService,sans-serif" font-weight="400" font-size="14.6708" transform="matrix(1 0 0 1.00077 110.41 75)">𝐴</text><text font-family="Cambria Math,Cambria Math_MSFontService,sans-serif" font-weight="400" font-size="14.6708" transform="matrix(1 0 0 1.00077 33.7807 102)">𝑖𝑑𝐵</text><text font-family="Cambria Math,Cambria Math_MSFontService,sans-serif" font-weight="400" font-size="14.6708" transform="matrix(1 0 0 1.00077 56.996 102)">:</text><text font-family="Cambria Math,Cambria Math_MSFontService,sans-serif" font-weight="400" font-size="14.6708" transform="matrix(1 0 0 1.00077 77.9324 102)">𝐵</text><text font-family="Cambria Math,Cambria Math_MSFontService,sans-serif" font-weight="400" font-size="14.6708" transform="matrix(1 0 0 1.00077 87.9875 102)"></text><text font-family="Cambria Math,Cambria Math_MSFontService,sans-serif" font-weight="400" font-size="14.6708" transform="matrix(1 0 0 1.00077 95.2239 102)">→</text><text font-family="Cambria Math,Cambria Math_MSFontService,sans-serif" font-weight="400" font-size="14.6708" transform="matrix(1 0 0 1.00077 111.623 102)">𝐵</text><text font-family="Cambria Math,Cambria Math_MSFontService,sans-serif" font-weight="400" font-size="14.6708" transform="matrix(1 0 0 1.00077 33.7141 129)">𝑖𝑑𝐶</text><text font-family="Cambria Math,Cambria Math_MSFontService,sans-serif" font-weight="400" font-size="14.6708" transform="matrix(1 0 0 1.00077 56.3496 129)">:</text><text font-family="Cambria Math,Cambria Math_MSFontService,sans-serif" font-weight="400" font-size="14.6708" transform="matrix(1 0 0 1.00077 77.286 129)">C</text><text font-family="Cambria Math,Cambria Math_MSFontService,sans-serif" font-weight="400" font-size="14.6708" transform="matrix(1 0 0 1.00077 85.6153 129)"></text><text font-family="Cambria Math,Cambria Math_MSFontService,sans-serif" font-weight="400" font-size="14.6708" transform="matrix(1 0 0 1.00077 92.8518 129)">→</text><text font-family="Cambria Math,Cambria Math_MSFontService,sans-serif" font-weight="400" font-size="14.6708" transform="matrix(1 0 0 1.00077 109.25 129)">C</text><text font-family="Cambria Math,Cambria Math_MSFontService,sans-serif" font-weight="400" font-size="14.6708" transform="matrix(1 0 0 1.00077 157.112 93)">𝑓</text><text font-family="Cambria Math,Cambria Math_MSFontService,sans-serif" font-weight="400" font-size="14.6708" transform="matrix(1 0 0 1.00077 165.534 93)">:</text><text font-family="Cambria Math,Cambria Math_MSFontService,sans-serif" font-weight="400" font-size="14.6708" transform="matrix(1 0 0 1.00077 186.471 93)">𝐴</text><text font-family="Cambria Math,Cambria Math_MSFontService,sans-serif" font-weight="400" font-size="14.6708" transform="matrix(1 0 0 1.00077 195.939 93)"></text><text font-family="Cambria Math,Cambria Math_MSFontService,sans-serif" font-weight="400" font-size="14.6708" transform="matrix(1 0 0 1.00077 203.176 93)">→</text><text font-family="Cambria Math,Cambria Math_MSFontService,sans-serif" font-weight="400" font-size="14.6708" transform="matrix(1 0 0 1.00077 219.574 93)">𝐵</text><text font-family="Cambria Math,Cambria Math_MSFontService,sans-serif" font-weight="400" font-size="14.6708" transform="matrix(1 0 0 1.00077 156.485 119)">𝑓′</text><text font-family="Cambria Math,Cambria Math_MSFontService,sans-serif" font-weight="400" font-size="14.6708" transform="matrix(1 0 0 1.00077 168.313 119)">:</text><text font-family="Cambria Math,Cambria Math_MSFontService,sans-serif" font-weight="400" font-size="14.6708" transform="matrix(1 0 0 1.00077 189.249 119)">𝐵</text><text font-family="Cambria Math,Cambria Math_MSFontService,sans-serif" font-weight="400" font-size="14.6708" transform="matrix(1 0 0 1.00077 199.304 119)"></text><text font-family="Cambria Math,Cambria Math_MSFontService,sans-serif" font-weight="400" font-size="14.6708" transform="matrix(1 0 0 1.00077 206.541 119)">→</text><text font-family="Cambria Math,Cambria Math_MSFontService,sans-serif" font-weight="400" font-size="14.6708" transform="matrix(1 0 0 1.00077 222.939 119)">𝐶</text><text font-family="Cambria Math,Cambria Math_MSFontService,sans-serif" font-weight="400" font-size="14.6708" transform="matrix(1 0 0 1.00077 271.236 95)">𝑔</text><text font-family="Cambria Math,Cambria Math_MSFontService,sans-serif" font-weight="400" font-size="14.6708" transform="matrix(1 0 0 1.00077 280.485 95)">:</text><text font-family="Cambria Math,Cambria Math_MSFontService,sans-serif" font-weight="400" font-size="14.6708" transform="matrix(1 0 0 1.00077 301.422 95)">𝐵</text><text font-family="Cambria Math,Cambria Math_MSFontService,sans-serif" font-weight="400" font-size="14.6708" transform="matrix(1 0 0 1.00077 311.477 95)"></text><text font-family="Cambria Math,Cambria Math_MSFontService,sans-serif" font-weight="400" font-size="14.6708" transform="matrix(1 0 0 1.00077 318.713 95)">→</text><text font-family="Cambria Math,Cambria Math_MSFontService,sans-serif" font-weight="400" font-size="14.6708" transform="matrix(1 0 0 1.00077 335.112 95)">𝐴</text><text font-family="Cambria Math,Cambria Math_MSFontService,sans-serif" font-weight="400" font-size="14.6708" transform="matrix(1 0 0 1.00077 269.651 121)">𝑔′</text><text font-family="Cambria Math,Cambria Math_MSFontService,sans-serif" font-weight="400" font-size="14.6708" transform="matrix(1 0 0 1.00077 282.479 121)">:</text><text font-family="Cambria Math,Cambria Math_MSFontService,sans-serif" font-weight="400" font-size="14.6708" transform="matrix(1 0 0 1.00077 303.415 121)">𝐶</text><text font-family="Cambria Math,Cambria Math_MSFontService,sans-serif" font-weight="400" font-size="14.6708" transform="matrix(1 0 0 1.00077 312.89 121)"></text><text font-family="Cambria Math,Cambria Math_MSFontService,sans-serif" font-weight="400" font-size="14.6708" transform="matrix(1 0 0 1.00077 320.127 121)">→</text><text font-family="Cambria Math,Cambria Math_MSFontService,sans-serif" font-weight="400" font-size="14.6708" transform="matrix(1 0 0 1.00077 336.525 121)">𝐴</text><path d="M15.5 50.9325C15.5 39.1083 25.078 29.5228 36.8931 29.5228L340.107 29.5228C351.922 29.5228 361.5 39.1083 361.5 50.9325L361.5 555.537C361.5 567.361 351.922 576.947 340.107 576.947L36.8931 576.947C25.078 576.947 15.5 567.361 15.5 555.537Z" stroke="#172C51" stroke-width="1.33268" stroke-miterlimit="8" fill="none" fill-rule="evenodd"/><path d="M380.5 46.4062C380.5 36.5291 388.501 28.5221 398.37 28.5221L651.648 28.5221C661.517 28.5221 669.518 36.5291 669.518 46.4062L669.518 558.062C669.518 567.939 661.517 575.946 651.648 575.946L398.37 575.946C388.501 575.946 380.5 567.939 380.5 558.062Z" stroke="#172C51" stroke-width="1.33268" stroke-miterlimit="8" fill="none" fill-rule="evenodd"/><rect x="175" y="10.0078" width="43" height="38.0294" fill="#FFFFFF"/><text font-family="Yu Gothic,Yu Gothic_MSFontService,sans-serif" font-weight="400" font-size="24.0068" transform="matrix(1 0 0 1.00077 184.481 36)">式</text><rect x="498" y="8.00616" width="44" height="39.0302" fill="#FFFFFF"/><text font-family="Yu Gothic,Yu Gothic_MSFontService,sans-serif" font-weight="400" font-size="24.0068" transform="matrix(1 0 0 1.00077 508.067 35)">図</text></g></svg>