<svg width="397" height="397" xmlns="http://www.w3.org/2000/svg" xmlns:xlink="http://www.w3.org/1999/xlink" overflow="hidden"><defs><clipPath id="clip0"><rect x="0" y="0" width="397" height="397"/></clipPath></defs><g clip-path="url(#clip0)"><rect x="0" y="0" width="397" height="397" fill="#FFFFFF"/><rect x="10.5001" y="10.5001" width="376" height="374" stroke="#172C51" stroke-width="1.33389" stroke-miterlimit="8" fill="none"/><rect x="10.5001" y="197.5" width="364" height="187" stroke="#172C51" stroke-width="1.33389" stroke-miterlimit="8" fill="#C0E865" fill-opacity="0.2"/><rect x="10.5001" y="20.5" width="187" height="364" stroke="#172C51" stroke-width="1.33389" stroke-miterlimit="8" fill="#C0E865" fill-opacity="0.2"/><rect x="10.5001" y="104.5" width="352" height="280" stroke="#172C51" stroke-width="1.33389" stroke-miterlimit="8" fill="#C0E865" fill-opacity="0.2"/><rect x="10.5001" y="32.5" width="280" height="352" stroke="#172C51" stroke-width="1.33389" stroke-miterlimit="8" fill="#C0E865" fill-opacity="0.2"/><rect x="10.5001" y="57.5" width="331" height="327" stroke="#172C51" stroke-width="1.33389" stroke-miterlimit="8" fill="#C0E865" fill-opacity="0.2"/><text font-family="Cambria Math,Cambria Math_MSFontService,sans-serif" font-weight="400" font-size="14.6728" transform="translate(102.034 75)">𝟏</text><text font-family="Cambria Math,Cambria Math_MSFontService,sans-serif" font-weight="400" font-size="14.6728" transform="translate(97.619 96)">𝟏𝟔</text><path d="M97.7849 81.3476 102.285 81.3476 106.785 81.3476 111.285 81.3476 115.785 81.3476 115.785 82.3476 111.285 82.3476 106.785 82.3476 102.285 82.3476 97.7849 82.3476Z" fill-rule="evenodd"/><text font-family="Cambria Math,Cambria Math_MSFontService,sans-serif" font-weight="400" font-size="14.6728" transform="translate(101.994 146)">𝟏</text><text font-family="Cambria Math,Cambria Math_MSFontService,sans-serif" font-weight="400" font-size="14.6728" transform="translate(101.994 167)">𝟖</text><path d="M102.247 152.489 105.247 152.489 108.247 152.489 111.247 152.489 111.247 153.489 108.247 153.489 105.247 153.489 102.247 153.489Z" fill-rule="evenodd"/><text font-family="Cambria Math,Cambria Math_MSFontService,sans-serif" font-weight="400" font-size="14.6728" transform="translate(101.994 284)">𝟏</text><text font-family="Cambria Math,Cambria Math_MSFontService,sans-serif" font-weight="400" font-size="14.6728" transform="translate(101.994 305)">𝟒</text><path d="M102.247 290.413 105.247 290.413 108.247 290.413 111.247 290.413 111.247 291.413 108.247 291.413 105.247 291.413 102.247 291.413Z" fill-rule="evenodd"/><text font-family="Cambria Math,Cambria Math_MSFontService,sans-serif" font-weight="400" font-size="14.6728" transform="translate(239.983 284)">𝟏</text><text font-family="Cambria Math,Cambria Math_MSFontService,sans-serif" font-weight="400" font-size="14.6728" transform="translate(239.983 305)">𝟖</text><path d="M239.815 290.413 242.815 290.413 245.815 290.413 248.815 290.413 248.815 291.413 245.815 291.413 242.815 291.413 239.815 291.413Z" fill-rule="evenodd"/><text font-family="Cambria Math,Cambria Math_MSFontService,sans-serif" font-weight="400" font-size="14.6728" transform="translate(239.603 146)">𝟏</text><text font-family="Cambria Math,Cambria Math_MSFontService,sans-serif" font-weight="400" font-size="14.6728" transform="translate(235.187 167)">𝟏𝟔</text><path d="M235.353 152.489 239.853 152.489 244.353 152.489 248.853 152.489 253.353 152.489 253.353 153.489 248.853 153.489 244.353 153.489 239.853 153.489 235.353 153.489Z" fill-rule="evenodd"/><text font-family="Cambria Math,Cambria Math_MSFontService,sans-serif" font-weight="400" font-size="14.6728" transform="translate(310.082 284)">𝟏</text><text font-family="Cambria Math,Cambria Math_MSFontService,sans-serif" font-weight="400" font-size="14.6728" transform="translate(305.666 305)">𝟏𝟔</text><path d="M305.832 290.413 310.332 290.413 314.832 290.413 319.332 290.413 323.832 290.413 323.832 291.413 319.332 291.413 314.832 291.413 310.332 291.413 305.832 291.413Z" fill-rule="evenodd"/></g></svg>